# This file uses centimeters as units for non-parametric coordinates.

mtllib propeller-try-2.mtl
g default
v -0.500000 0.600000 1.200000
v -0.500000 0.600000 1.100000
v -0.100000 0.600000 1.200000
v -0.100000 0.600000 1.100000
v -0.700000 0.500000 1.200000
v -0.700000 0.500000 1.100000
v -0.500000 0.500000 1.200000
v -0.500000 0.500000 1.100000
v -0.100000 0.500000 1.200000
v -0.100000 0.500000 1.100000
v 0.100000 0.500000 1.200000
v 0.100000 0.500000 1.100000
v -0.800000 0.400000 1.200000
v -0.800000 0.400000 1.100000
v -0.700000 0.400000 1.200000
v -0.700000 0.400000 1.100000
v 0.000000 0.400000 1.300000
v 0.000000 0.400000 1.200000
v 0.000000 0.400000 1.100000
v 0.000000 0.400000 0.900000
v 0.100000 0.400000 1.300000
v 0.100000 0.400000 1.200000
v 0.100000 0.400000 1.100000
v 0.100000 0.400000 0.900000
v 0.900000 0.400000 1.200000
v 0.900000 0.400000 1.100000
v -0.800000 0.300000 1.200000
v -0.800000 0.300000 1.100000
v 0.000000 0.300000 1.300000
v 0.000000 0.300000 1.200000
v 0.000000 0.300000 1.100000
v 0.000000 0.300000 0.900000
v 0.100000 0.300000 1.300000
v 0.100000 0.300000 1.200000
v 0.100000 0.300000 1.100000
v 0.100000 0.300000 0.900000
v 0.800000 0.300000 1.200000
v 0.800000 0.300000 1.100000
v 0.900000 0.300000 1.200000
v 0.900000 0.300000 1.100000
v 0.000000 0.200000 1.200000
v 0.000000 0.200000 1.100000
v 0.200000 0.200000 1.200000
v 0.200000 0.200000 1.100000
v 0.600000 0.200000 1.200000
v 0.600000 0.200000 1.100000
v 0.800000 0.200000 1.200000
v 0.800000 0.200000 1.100000
v 0.200000 0.100000 1.200000
v 0.200000 0.100000 1.100000
v 0.600000 0.100000 1.200000
v 0.600000 0.100000 1.100000
v 0.000000 0.400000 1.300000
v 0.100000 0.400000 1.300000
v 0.000000 0.300000 1.300000
v 0.100000 0.300000 1.300000
v -0.500000 0.600000 1.200000
v -0.100000 0.600000 1.200000
v -0.700000 0.500000 1.200000
v -0.500000 0.500000 1.200000
v -0.100000 0.500000 1.200000
v 0.100000 0.500000 1.200000
v -0.800000 0.400000 1.200000
v -0.700000 0.400000 1.200000
v 0.000000 0.400000 1.200000
v 0.100000 0.400000 1.200000
v 0.900000 0.400000 1.200000
v -0.800000 0.300000 1.200000
v 0.000000 0.300000 1.200000
v 0.100000 0.300000 1.200000
v 0.800000 0.300000 1.200000
v 0.900000 0.300000 1.200000
v 0.000000 0.200000 1.200000
v 0.200000 0.200000 1.200000
v 0.600000 0.200000 1.200000
v 0.800000 0.200000 1.200000
v 0.200000 0.100000 1.200000
v 0.600000 0.100000 1.200000
v -0.500000 0.600000 1.100000
v -0.100000 0.600000 1.100000
v -0.700000 0.500000 1.100000
v -0.500000 0.500000 1.100000
v -0.100000 0.500000 1.100000
v 0.100000 0.500000 1.100000
v -0.800000 0.400000 1.100000
v -0.700000 0.400000 1.100000
v 0.000000 0.400000 1.100000
v 0.100000 0.400000 1.100000
v 0.900000 0.400000 1.100000
v -0.800000 0.300000 1.100000
v 0.000000 0.300000 1.100000
v 0.100000 0.300000 1.100000
v 0.800000 0.300000 1.100000
v 0.900000 0.300000 1.100000
v 0.000000 0.200000 1.100000
v 0.200000 0.200000 1.100000
v 0.600000 0.200000 1.100000
v 0.800000 0.200000 1.100000
v 0.200000 0.100000 1.100000
v 0.600000 0.100000 1.100000
v 0.000000 0.400000 0.900000
v 0.100000 0.400000 0.900000
v 0.000000 0.300000 0.900000
v 0.100000 0.300000 0.900000
v -0.800000 0.400000 1.200000
v -0.800000 0.300000 1.200000
v -0.800000 0.400000 1.100000
v -0.800000 0.300000 1.100000
v -0.700000 0.500000 1.200000
v -0.700000 0.400000 1.200000
v -0.700000 0.500000 1.100000
v -0.700000 0.400000 1.100000
v -0.500000 0.600000 1.200000
v -0.500000 0.500000 1.200000
v -0.500000 0.600000 1.100000
v -0.500000 0.500000 1.100000
v 0.000000 0.400000 1.300000
v 0.000000 0.300000 1.300000
v 0.000000 0.400000 1.200000
v 0.000000 0.300000 1.200000
v 0.000000 0.200000 1.200000
v 0.000000 0.400000 1.100000
v 0.000000 0.300000 1.100000
v 0.000000 0.200000 1.100000
v 0.000000 0.400000 0.900000
v 0.000000 0.300000 0.900000
v 0.200000 0.200000 1.200000
v 0.200000 0.100000 1.200000
v 0.200000 0.200000 1.100000
v 0.200000 0.100000 1.100000
v -0.100000 0.600000 1.200000
v -0.100000 0.500000 1.200000
v -0.100000 0.600000 1.100000
v -0.100000 0.500000 1.100000
v 0.100000 0.400000 1.300000
v 0.100000 0.300000 1.300000
v 0.100000 0.500000 1.200000
v 0.100000 0.400000 1.200000
v 0.100000 0.300000 1.200000
v 0.100000 0.500000 1.100000
v 0.100000 0.400000 1.100000
v 0.100000 0.300000 1.100000
v 0.100000 0.400000 0.900000
v 0.100000 0.300000 0.900000
v 0.600000 0.200000 1.200000
v 0.600000 0.100000 1.200000
v 0.600000 0.200000 1.100000
v 0.600000 0.100000 1.100000
v 0.800000 0.300000 1.200000
v 0.800000 0.200000 1.200000
v 0.800000 0.300000 1.100000
v 0.800000 0.200000 1.100000
v 0.900000 0.400000 1.200000
v 0.900000 0.300000 1.200000
v 0.900000 0.400000 1.100000
v 0.900000 0.300000 1.100000
vt 0.005859 0.500000
vt 0.970703 0.500000
vt 0.005859 0.500000
vt 0.005859 0.500000
vt 0.005859 0.500000
vt 0.005859 0.500000
vt 0.005859 0.500000
vt 0.005859 0.500000
vt 0.005859 0.500000
vt 0.005859 0.500000
vt 0.005859 0.500000
vt 0.005859 0.500000
vt 0.005859 0.500000
vt 0.005859 0.500000
vt 0.005859 0.500000
vt 0.005859 0.500000
vt 0.005859 0.500000
vt 0.005859 0.500000
vt 0.005859 0.500000
vt 0.005859 0.500000
vt 0.005859 0.500000
vt 0.005859 0.500000
vt 0.005859 0.500000
vt 0.005859 0.500000
vt 0.970703 0.500000
vt 0.970703 0.500000
vt 0.970703 0.500000
vt 0.970703 0.500000
vt 0.970703 0.500000
vt 0.970703 0.500000
vt 0.970703 0.500000
vt 0.970703 0.500000
vt 0.970703 0.500000
vt 0.970703 0.500000
vt 0.005859 0.500000
vt 0.005859 0.500000
vt 0.005859 0.500000
vt 0.005859 0.500000
vt 0.005859 0.500000
vt 0.005859 0.500000
vt 0.005859 0.500000
vt 0.005859 0.500000
vt 0.005859 0.500000
vt 0.005859 0.500000
vt 0.005859 0.500000
vt 0.005859 0.500000
vt 0.970703 0.500000
vt 0.970703 0.500000
vt 0.970703 0.500000
vt 0.970703 0.500000
vt 0.970703 0.500000
vt 0.970703 0.500000
vt 0.970703 0.500000
vt 0.970703 0.500000
vt 0.970703 0.500000
vt 0.970703 0.500000
vt 0.970703 0.500000
vt 0.970703 0.500000
vt 0.005859 0.500000
vt 0.005859 0.500000
vt 0.005859 0.500000
vt 0.005859 0.500000
vt 0.005859 0.500000
vt 0.005859 0.500000
vt 0.005859 0.500000
vt 0.005859 0.500000
vt 0.005859 0.500000
vt 0.005859 0.500000
vt 0.005859 0.500000
vt 0.005859 0.500000
vt 0.005859 0.500000
vt 0.005859 0.500000
vt 0.005859 0.500000
vt 0.005859 0.500000
vt 0.005859 0.500000
vt 0.005859 0.500000
vt 0.005859 0.500000
vt 0.005859 0.500000
vt 0.005859 0.500000
vt 0.005859 0.500000
vt 0.005859 0.500000
vt 0.005859 0.500000
vt 0.970703 0.500000
vt 0.970703 0.500000
vt 0.970703 0.500000
vt 0.970703 0.500000
vt 0.970703 0.500000
vt 0.970703 0.500000
vt 0.005859 0.500000
vt 0.005859 0.500000
vt 0.005859 0.500000
vt 0.005859 0.500000
vt 0.005859 0.500000
vt 0.005859 0.500000
vt 0.005859 0.500000
vt 0.005859 0.500000
vt 0.005859 0.500000
vt 0.005859 0.500000
vt 0.005859 0.500000
vt 0.005859 0.500000
vt 0.005859 0.500000
vt 0.005859 0.500000
vt 0.005859 0.500000
vt 0.005859 0.500000
vt 0.005859 0.500000
vt 0.005859 0.500000
vt 0.005859 0.500000
vt 0.005859 0.500000
vt 0.005859 0.500000
vt 0.005859 0.500000
vt 0.005859 0.500000
vt 0.005859 0.500000
vt 0.005859 0.500000
vt 0.005859 0.500000
vt 0.005859 0.500000
vt 0.005859 0.500000
vt 0.005859 0.500000
vt 0.005859 0.500000
vt 0.005859 0.500000
vt 0.005859 0.500000
vt 0.005859 0.500000
vt 0.005859 0.500000
vt 0.005859 0.500000
vt 0.005859 0.500000
vt 0.005859 0.500000
vt 0.005859 0.500000
vt 0.005859 0.500000
vt 0.005859 0.500000
vt 0.005859 0.500000
vt 0.005859 0.500000
vt 0.005859 0.500000
vt 0.005859 0.500000
vt 0.005859 0.500000
vt 0.005859 0.500000
vt 0.005859 0.500000
vt 0.005859 0.500000
vt 0.005859 0.500000
vt 0.005859 0.500000
vt 0.005859 0.500000
vt 0.005859 0.500000
vt 0.005859 0.500000
vt 0.005859 0.500000
vt 0.005859 0.500000
vt 0.005859 0.500000
vt 0.005859 0.500000
vt 0.005859 0.500000
vt 0.005859 0.500000
vt 0.005859 0.500000
vt 0.005859 0.500000
vt 0.005859 0.500000
vt 0.005859 0.500000
vt 0.005859 0.500000
vt 0.005859 0.500000
vt 0.005859 0.500000
vt 0.005859 0.500000
vt 0.005859 0.500000
vt 0.005859 0.500000
vt 0.005859 0.500000
vt 0.005859 0.500000
vt 0.005859 0.500000
vt 0.005859 0.500000
vt 0.005859 0.500000
vt 0.005859 0.500000
vt 0.005859 0.500000
vt 0.005859 0.500000
vt 0.005859 0.500000
vt 0.005859 0.500000
vt 0.005859 0.500000
vt 0.005859 0.500000
vt 0.005859 0.500000
vt 0.005859 0.500000
vt 0.005859 0.500000
vt 0.005859 0.500000
vt 0.005859 0.500000
vt 0.005859 0.500000
vt 0.005859 0.500000
vt 0.005859 0.500000
vt 0.005859 0.500000
vt 0.005859 0.500000
vt 0.005859 0.500000
vt 0.005859 0.500000
vt 0.005859 0.500000
vt 0.005859 0.500000
vt 0.005859 0.500000
vt 0.005859 0.500000
vt 0.005859 0.500000
vt 0.005859 0.500000
vt 0.005859 0.500000
vt 0.005859 0.500000
vt 0.005859 0.500000
vt 0.005859 0.500000
vt 0.005859 0.500000
vt 0.005859 0.500000
vt 0.005859 0.500000
vt 0.005859 0.500000
vt 0.005859 0.500000
vt 0.005859 0.500000
vt 0.005859 0.500000
vt 0.005859 0.500000
vt 0.005859 0.500000
vt 0.005859 0.500000
vt 0.005859 0.500000
vt 0.005859 0.500000
vt 0.005859 0.500000
vt 0.005859 0.500000
vt 0.005859 0.500000
vt 0.005859 0.500000
vt 0.005859 0.500000
vt 0.970703 0.500000
vt 0.970703 0.500000
vt 0.970703 0.500000
vt 0.970703 0.500000
vt 0.970703 0.500000
vt 0.970703 0.500000
vt 0.005859 0.500000
vt 0.005859 0.500000
vt 0.005859 0.500000
vt 0.005859 0.500000
vt 0.005859 0.500000
vt 0.005859 0.500000
vt 0.005859 0.500000
vt 0.005859 0.500000
vt 0.005859 0.500000
vt 0.005859 0.500000
vt 0.005859 0.500000
vt 0.005859 0.500000
vt 0.005859 0.500000
vt 0.005859 0.500000
vt 0.005859 0.500000
vt 0.005859 0.500000
vt 0.005859 0.500000
vt 0.005859 0.500000
vt 0.970703 0.500000
vt 0.970703 0.500000
vt 0.970703 0.500000
vt 0.970703 0.500000
vt 0.970703 0.500000
vt 0.970703 0.500000
vt 0.005859 0.500000
vt 0.005859 0.500000
vt 0.005859 0.500000
vt 0.005859 0.500000
vt 0.005859 0.500000
vt 0.005859 0.500000
vt 0.970703 0.500000
vt 0.970703 0.500000
vt 0.970703 0.500000
vt 0.970703 0.500000
vt 0.970703 0.500000
vt 0.970703 0.500000
vt 0.005859 0.500000
vt 0.005859 0.500000
vt 0.005859 0.500000
vt 0.005859 0.500000
vt 0.005859 0.500000
vt 0.005859 0.500000
vt 0.005859 0.500000
vt 0.005859 0.500000
vt 0.005859 0.500000
vt 0.005859 0.500000
vt 0.005859 0.500000
vt 0.005859 0.500000
vt 0.970703 0.500000
vt 0.970703 0.500000
vt 0.970703 0.500000
vt 0.970703 0.500000
vt 0.970703 0.500000
vt 0.970703 0.500000
vt 0.005859 0.500000
vt 0.005859 0.500000
vt 0.005859 0.500000
vt 0.005859 0.500000
vt 0.005859 0.500000
vt 0.005859 0.500000
vt 0.970703 0.500000
vt 0.970703 0.500000
vt 0.970703 0.500000
vt 0.970703 0.500000
vt 0.970703 0.500000
vt 0.970703 0.500000
vt 0.005859 0.500000
vt 0.005859 0.500000
vt 0.005859 0.500000
vt 0.005859 0.500000
vt 0.005859 0.500000
vt 0.005859 0.500000
vt 0.005859 0.500000
vt 0.005859 0.500000
vt 0.005859 0.500000
vt 0.005859 0.500000
vt 0.005859 0.500000
vt 0.005859 0.500000
vt 0.005859 0.500000
vt 0.005859 0.500000
vt 0.005859 0.500000
vt 0.005859 0.500000
vt 0.005859 0.500000
vt 0.005859 0.500000
vn 0.000000 1.000000 0.000000
vn 0.000000 1.000000 0.000000
vn 0.000000 1.000000 0.000000
vn 0.000000 1.000000 0.000000
vn 0.000000 1.000000 0.000000
vn 0.000000 1.000000 0.000000
vn 0.000000 1.000000 0.000000
vn 0.000000 1.000000 0.000000
vn 0.000000 1.000000 0.000000
vn 0.000000 1.000000 0.000000
vn 0.000000 1.000000 0.000000
vn 0.000000 1.000000 0.000000
vn 0.000000 1.000000 0.000000
vn 0.000000 1.000000 0.000000
vn 0.000000 1.000000 0.000000
vn 0.000000 1.000000 0.000000
vn 0.000000 1.000000 0.000000
vn 0.000000 1.000000 0.000000
vn 0.000000 1.000000 0.000000
vn 0.000000 1.000000 0.000000
vn 0.000000 1.000000 0.000000
vn 0.000000 1.000000 0.000000
vn 0.000000 1.000000 0.000000
vn 0.000000 1.000000 0.000000
vn 0.000000 1.000000 0.000000
vn 0.000000 1.000000 0.000000
vn 0.000000 1.000000 0.000000
vn 0.000000 1.000000 0.000000
vn 0.000000 1.000000 0.000000
vn 0.000000 1.000000 0.000000
vn 0.000000 1.000000 0.000000
vn 0.000000 1.000000 0.000000
vn 0.000000 1.000000 0.000000
vn 0.000000 1.000000 0.000000
vn 0.000000 1.000000 0.000000
vn 0.000000 1.000000 0.000000
vn 0.000000 1.000000 0.000000
vn 0.000000 1.000000 0.000000
vn 0.000000 1.000000 0.000000
vn 0.000000 1.000000 0.000000
vn 0.000000 1.000000 0.000000
vn 0.000000 1.000000 0.000000
vn 0.000000 -1.000000 0.000000
vn 0.000000 -1.000000 0.000000
vn 0.000000 -1.000000 0.000000
vn 0.000000 -1.000000 0.000000
vn 0.000000 -1.000000 0.000000
vn 0.000000 -1.000000 0.000000
vn 0.000000 -1.000000 0.000000
vn 0.000000 -1.000000 0.000000
vn 0.000000 -1.000000 0.000000
vn 0.000000 -1.000000 0.000000
vn 0.000000 -1.000000 0.000000
vn 0.000000 -1.000000 0.000000
vn 0.000000 -1.000000 0.000000
vn 0.000000 -1.000000 0.000000
vn 0.000000 -1.000000 0.000000
vn 0.000000 -1.000000 0.000000
vn 0.000000 -1.000000 0.000000
vn 0.000000 -1.000000 0.000000
vn 0.000000 -1.000000 0.000000
vn 0.000000 -1.000000 0.000000
vn 0.000000 -1.000000 0.000000
vn 0.000000 -1.000000 0.000000
vn 0.000000 -1.000000 0.000000
vn 0.000000 -1.000000 0.000000
vn 0.000000 -1.000000 0.000000
vn 0.000000 -1.000000 0.000000
vn 0.000000 -1.000000 0.000000
vn 0.000000 -1.000000 0.000000
vn 0.000000 -1.000000 0.000000
vn 0.000000 -1.000000 0.000000
vn 0.000000 -1.000000 0.000000
vn 0.000000 -1.000000 0.000000
vn 0.000000 -1.000000 0.000000
vn 0.000000 -1.000000 0.000000
vn 0.000000 -1.000000 0.000000
vn 0.000000 -1.000000 0.000000
vn 0.000000 -1.000000 0.000000
vn 0.000000 -1.000000 0.000000
vn 0.000000 -1.000000 0.000000
vn 0.000000 -1.000000 0.000000
vn 0.000000 -1.000000 0.000000
vn 0.000000 -1.000000 0.000000
vn 0.000000 0.000000 1.000000
vn 0.000000 0.000000 1.000000
vn 0.000000 0.000000 1.000000
vn 0.000000 0.000000 1.000000
vn 0.000000 0.000000 1.000000
vn 0.000000 0.000000 1.000000
vn 0.000000 0.000000 1.000000
vn 0.000000 0.000000 1.000000
vn 0.000000 0.000000 1.000000
vn 0.000000 0.000000 1.000000
vn 0.000000 0.000000 1.000000
vn 0.000000 0.000000 1.000000
vn 0.000000 0.000000 1.000000
vn 0.000000 0.000000 1.000000
vn 0.000000 0.000000 1.000000
vn 0.000000 0.000000 1.000000
vn 0.000000 0.000000 1.000000
vn 0.000000 0.000000 1.000000
vn 0.000000 0.000000 1.000000
vn 0.000000 0.000000 1.000000
vn 0.000000 0.000000 1.000000
vn 0.000000 0.000000 1.000000
vn 0.000000 0.000000 1.000000
vn 0.000000 0.000000 1.000000
vn 0.000000 0.000000 1.000000
vn 0.000000 0.000000 1.000000
vn 0.000000 0.000000 1.000000
vn 0.000000 0.000000 1.000000
vn 0.000000 0.000000 1.000000
vn 0.000000 0.000000 1.000000
vn 0.000000 0.000000 1.000000
vn 0.000000 0.000000 1.000000
vn 0.000000 0.000000 1.000000
vn 0.000000 0.000000 1.000000
vn 0.000000 0.000000 1.000000
vn 0.000000 0.000000 1.000000
vn 0.000000 0.000000 1.000000
vn 0.000000 0.000000 1.000000
vn 0.000000 0.000000 1.000000
vn 0.000000 0.000000 1.000000
vn 0.000000 0.000000 1.000000
vn 0.000000 0.000000 1.000000
vn 0.000000 0.000000 1.000000
vn 0.000000 0.000000 1.000000
vn 0.000000 0.000000 1.000000
vn 0.000000 0.000000 1.000000
vn 0.000000 0.000000 1.000000
vn 0.000000 0.000000 1.000000
vn 0.000000 0.000000 1.000000
vn 0.000000 0.000000 1.000000
vn 0.000000 0.000000 1.000000
vn 0.000000 0.000000 1.000000
vn 0.000000 0.000000 1.000000
vn 0.000000 0.000000 1.000000
vn 0.000000 0.000000 1.000000
vn 0.000000 0.000000 1.000000
vn 0.000000 0.000000 1.000000
vn 0.000000 0.000000 1.000000
vn 0.000000 0.000000 1.000000
vn 0.000000 0.000000 1.000000
vn 0.000000 0.000000 1.000000
vn 0.000000 0.000000 1.000000
vn 0.000000 0.000000 1.000000
vn 0.000000 0.000000 1.000000
vn 0.000000 0.000000 1.000000
vn 0.000000 0.000000 1.000000
vn 0.000000 0.000000 -1.000000
vn 0.000000 0.000000 -1.000000
vn 0.000000 0.000000 -1.000000
vn 0.000000 0.000000 -1.000000
vn 0.000000 0.000000 -1.000000
vn 0.000000 0.000000 -1.000000
vn 0.000000 0.000000 -1.000000
vn 0.000000 0.000000 -1.000000
vn 0.000000 0.000000 -1.000000
vn 0.000000 0.000000 -1.000000
vn 0.000000 0.000000 -1.000000
vn 0.000000 0.000000 -1.000000
vn 0.000000 0.000000 -1.000000
vn 0.000000 0.000000 -1.000000
vn 0.000000 0.000000 -1.000000
vn 0.000000 0.000000 -1.000000
vn 0.000000 0.000000 -1.000000
vn 0.000000 0.000000 -1.000000
vn 0.000000 0.000000 -1.000000
vn 0.000000 0.000000 -1.000000
vn 0.000000 0.000000 -1.000000
vn 0.000000 0.000000 -1.000000
vn 0.000000 0.000000 -1.000000
vn 0.000000 0.000000 -1.000000
vn 0.000000 0.000000 -1.000000
vn 0.000000 0.000000 -1.000000
vn 0.000000 0.000000 -1.000000
vn 0.000000 0.000000 -1.000000
vn 0.000000 0.000000 -1.000000
vn 0.000000 0.000000 -1.000000
vn 0.000000 0.000000 -1.000000
vn 0.000000 0.000000 -1.000000
vn 0.000000 0.000000 -1.000000
vn 0.000000 0.000000 -1.000000
vn 0.000000 0.000000 -1.000000
vn 0.000000 0.000000 -1.000000
vn 0.000000 0.000000 -1.000000
vn 0.000000 0.000000 -1.000000
vn 0.000000 0.000000 -1.000000
vn 0.000000 0.000000 -1.000000
vn 0.000000 0.000000 -1.000000
vn 0.000000 0.000000 -1.000000
vn 0.000000 0.000000 -1.000000
vn 0.000000 0.000000 -1.000000
vn 0.000000 0.000000 -1.000000
vn 0.000000 0.000000 -1.000000
vn 0.000000 0.000000 -1.000000
vn 0.000000 0.000000 -1.000000
vn 0.000000 0.000000 -1.000000
vn 0.000000 0.000000 -1.000000
vn 0.000000 0.000000 -1.000000
vn 0.000000 0.000000 -1.000000
vn 0.000000 0.000000 -1.000000
vn 0.000000 0.000000 -1.000000
vn 0.000000 0.000000 -1.000000
vn 0.000000 0.000000 -1.000000
vn 0.000000 0.000000 -1.000000
vn 0.000000 0.000000 -1.000000
vn 0.000000 0.000000 -1.000000
vn 0.000000 0.000000 -1.000000
vn 0.000000 0.000000 -1.000000
vn 0.000000 0.000000 -1.000000
vn 0.000000 0.000000 -1.000000
vn 0.000000 0.000000 -1.000000
vn 0.000000 0.000000 -1.000000
vn 0.000000 0.000000 -1.000000
vn -1.000000 0.000000 0.000000
vn -1.000000 0.000000 0.000000
vn -1.000000 0.000000 0.000000
vn -1.000000 0.000000 0.000000
vn -1.000000 0.000000 0.000000
vn -1.000000 0.000000 0.000000
vn -1.000000 0.000000 0.000000
vn -1.000000 0.000000 0.000000
vn -1.000000 0.000000 0.000000
vn -1.000000 0.000000 0.000000
vn -1.000000 0.000000 0.000000
vn -1.000000 0.000000 0.000000
vn -1.000000 0.000000 0.000000
vn -1.000000 0.000000 0.000000
vn -1.000000 0.000000 0.000000
vn -1.000000 0.000000 0.000000
vn -1.000000 0.000000 0.000000
vn -1.000000 0.000000 0.000000
vn -1.000000 0.000000 0.000000
vn -1.000000 0.000000 0.000000
vn -1.000000 0.000000 0.000000
vn -1.000000 0.000000 0.000000
vn -1.000000 0.000000 0.000000
vn -1.000000 0.000000 0.000000
vn -1.000000 0.000000 0.000000
vn -1.000000 0.000000 0.000000
vn -1.000000 0.000000 0.000000
vn -1.000000 0.000000 0.000000
vn -1.000000 0.000000 0.000000
vn -1.000000 0.000000 0.000000
vn -1.000000 0.000000 0.000000
vn -1.000000 0.000000 0.000000
vn -1.000000 0.000000 0.000000
vn -1.000000 0.000000 0.000000
vn -1.000000 0.000000 0.000000
vn -1.000000 0.000000 0.000000
vn -1.000000 0.000000 0.000000
vn -1.000000 0.000000 0.000000
vn -1.000000 0.000000 0.000000
vn -1.000000 0.000000 0.000000
vn -1.000000 0.000000 0.000000
vn -1.000000 0.000000 0.000000
vn 1.000000 0.000000 0.000000
vn 1.000000 0.000000 0.000000
vn 1.000000 0.000000 0.000000
vn 1.000000 0.000000 0.000000
vn 1.000000 0.000000 0.000000
vn 1.000000 0.000000 0.000000
vn 1.000000 0.000000 0.000000
vn 1.000000 0.000000 0.000000
vn 1.000000 0.000000 0.000000
vn 1.000000 0.000000 0.000000
vn 1.000000 0.000000 0.000000
vn 1.000000 0.000000 0.000000
vn 1.000000 0.000000 0.000000
vn 1.000000 0.000000 0.000000
vn 1.000000 0.000000 0.000000
vn 1.000000 0.000000 0.000000
vn 1.000000 0.000000 0.000000
vn 1.000000 0.000000 0.000000
vn 1.000000 0.000000 0.000000
vn 1.000000 0.000000 0.000000
vn 1.000000 0.000000 0.000000
vn 1.000000 0.000000 0.000000
vn 1.000000 0.000000 0.000000
vn 1.000000 0.000000 0.000000
vn 1.000000 0.000000 0.000000
vn 1.000000 0.000000 0.000000
vn 1.000000 0.000000 0.000000
vn 1.000000 0.000000 0.000000
vn 1.000000 0.000000 0.000000
vn 1.000000 0.000000 0.000000
vn 1.000000 0.000000 0.000000
vn 1.000000 0.000000 0.000000
vn 1.000000 0.000000 0.000000
vn 1.000000 0.000000 0.000000
vn 1.000000 0.000000 0.000000
vn 1.000000 0.000000 0.000000
vn 1.000000 0.000000 0.000000
vn 1.000000 0.000000 0.000000
vn 1.000000 0.000000 0.000000
vn 1.000000 0.000000 0.000000
vn 1.000000 0.000000 0.000000
vn 1.000000 0.000000 0.000000
s off
g BiPlane_solo_0_propeller:Mesh
usemtl BiPlane_solo_0_propeller:palette
f 3/1/1 2/3/2 1/4/3
f 4/5/4 2/6/5 3/1/6
f 7/7/7 6/8/8 5/9/9
f 8/10/10 6/11/11 7/12/12
f 11/13/13 10/14/14 9/15/15
f 12/16/16 10/17/17 11/18/18
f 15/19/19 14/20/20 13/21/21
f 16/22/22 14/23/23 15/24/24
f 21/2/25 18/25/26 17/26/27
f 22/27/28 18/28/29 21/2/30
f 23/29/31 20/30/32 19/31/33
f 24/32/34 20/33/35 23/34/36
f 25/35/37 23/36/38 22/37/39
f 26/38/40 23/39/41 25/40/42
f 27/41/43 28/42/44 30/43/45
f 30/44/46 28/45/47 31/46/48
f 29/47/49 30/48/50 33/49/51
f 33/50/52 30/51/53 34/52/54
f 31/53/55 32/54/56 35/55/57
f 35/56/58 32/57/59 36/58/60
f 37/59/61 38/60/62 39/61/63
f 39/62/64 38/63/65 40/64/66
f 41/65/67 42/66/68 43/67/69
f 43/68/70 42/69/71 44/70/72
f 45/71/73 46/72/74 47/73/75
f 47/74/76 46/75/77 48/76/78
f 49/77/79 50/78/80 51/79/81
f 51/80/82 50/81/83 52/82/84
f 55/83/85 54/84/86 53/85/87
f 56/86/88 54/87/89 55/88/90
f 60/89/91 58/90/92 57/91/93
f 61/92/94 58/93/95 60/94/96
f 64/95/97 60/96/98 59/97/99
f 64/98/100 62/99/101 61/100/102
f 64/101/103 61/102/104 60/103/105
f 65/104/106 62/105/107 64/106/108
f 66/107/109 62/108/110 65/109/111
f 68/110/112 64/111/113 63/112/114
f 68/113/115 65/114/116 64/115/117
f 69/116/118 65/117/119 68/118/120
f 70/119/121 67/120/122 66/121/123
f 71/122/124 67/123/125 70/124/126
f 72/125/127 67/126/128 71/127/129
f 73/128/130 70/129/131 69/130/132
f 73/131/133 71/132/134 70/133/135
f 74/134/136 71/135/137 73/136/138
f 75/137/139 71/138/140 74/139/141
f 76/140/142 71/141/143 75/142/144
f 77/143/145 75/144/146 74/145/147
f 78/146/148 75/147/149 77/148/150
f 79/149/151 80/150/152 82/151/153
f 82/152/154 80/153/155 83/154/156
f 81/155/157 82/156/158 86/157/159
f 83/158/160 84/159/161 86/160/162
f 82/161/163 83/162/164 86/163/165
f 86/164/166 84/165/167 87/166/168
f 87/167/169 84/168/170 88/169/171
f 85/170/172 86/171/173 90/172/174
f 86/173/175 87/174/176 90/175/177
f 90/176/178 87/177/179 91/178/180
f 88/179/181 89/180/182 92/181/183
f 92/182/184 89/183/185 93/184/186
f 93/185/187 89/186/188 94/187/189
f 91/188/190 92/189/191 95/190/192
f 92/191/193 93/192/194 95/193/195
f 95/194/196 93/195/197 96/196/198
f 96/197/199 93/198/200 97/199/201
f 97/200/202 93/201/203 98/202/204
f 96/203/205 97/204/206 99/205/207
f 99/206/208 97/207/209 100/208/210
f 101/209/211 102/210/212 103/211/213
f 103/212/214 102/213/215 104/214/216
f 107/215/217 106/216/218 105/217/219
f 108/218/220 106/219/221 107/220/222
f 111/221/223 110/222/224 109/223/225
f 112/224/226 110/225/227 111/226/228
f 115/227/229 114/228/230 113/229/231
f 116/230/232 114/231/233 115/232/234
f 119/233/235 118/234/236 117/235/237
f 120/236/238 118/237/239 119/238/240
f 123/239/241 121/240/242 120/241/243
f 124/242/244 121/243/245 123/244/246
f 125/245/247 123/246/248 122/247/249
f 126/248/250 123/249/251 125/250/252
f 129/251/253 128/252/254 127/253/255
f 130/254/256 128/255/257 129/256/258
f 131/257/259 132/258/260 133/259/261
f 133/260/262 132/261/263 134/262/264
f 135/263/265 136/264/266 138/265/267
f 138/266/268 136/267/269 139/268/270
f 137/269/271 138/270/272 140/271/273
f 140/272/274 138/273/275 141/274/276
f 141/275/277 142/276/278 143/277/279
f 143/278/280 142/279/281 144/280/282
f 145/281/283 146/282/284 147/283/285
f 147/284/286 146/285/287 148/286/288
f 149/287/289 150/288/290 151/289/291
f 151/290/292 150/291/293 152/292/294
f 153/293/295 154/294/296 155/295/297
f 155/296/298 154/297/299 156/298/300
